<?xml version="1.0" encoding="UTF-8" standalone="no"?>
<svg
   xmlns:dc="http://purl.org/dc/elements/1.1/"
   xmlns:cc="http://creativecommons.org/ns#"
   xmlns:rdf="http://www.w3.org/1999/02/22-rdf-syntax-ns#"
   xmlns:svg="http://www.w3.org/2000/svg"
   xmlns="http://www.w3.org/2000/svg"
   xmlns:sodipodi="http://sodipodi.sourceforge.net/DTD/sodipodi-0.dtd"
   xmlns:inkscape="http://www.inkscape.org/namespaces/inkscape"
   data-name="Layer 1"
   viewBox="0 0 100 100"
   x="0px"
   y="0px"
   version="1.1"
   id="svg12"
   sodipodi:docname="noun_1253380_cc.svg"
   width="100"
   height="100"
   inkscape:version="0.92.3 (2405546, 2018-03-11)"
   style="fill: #fff;"
   >
  <metadata
     id="metadata18">
    <rdf:RDF>
      <cc:Work
         rdf:about="">
        <dc:format>image/svg+xml</dc:format>
        <dc:type
           rdf:resource="http://purl.org/dc/dcmitype/StillImage" />
        <dc:title>133all</dc:title>
      </cc:Work>
    </rdf:RDF>
  </metadata>
  <defs
     id="defs16" />
  <sodipodi:namedview
     pagecolor="#ffffff"
     bordercolor="#666666"
     borderopacity="1"
     objecttolerance="10"
     gridtolerance="10"
     guidetolerance="10"
     inkscape:pageopacity="0"
     inkscape:pageshadow="2"
     inkscape:window-width="1920"
     inkscape:window-height="1017"
     id="namedview14"
     showgrid="false"
     inkscape:zoom="1.888"
     inkscape:cx="52.913136"
     inkscape:cy="62.5"
     inkscape:window-x="-8"
     inkscape:window-y="-8"
     inkscape:window-maximized="1"
     inkscape:current-layer="svg12" />
  <title
     id="title2">133all</title>
  <g
     id="g40"
     transform="translate(0,-0.01657272)">
    <path
       id="path4"
       d="m 21.46,94.64 c 8.25,-0.88 14.39,-9.26 13.32,-17.54 0,-14.57 0,-29.16 0,-43.72 0.56,-0.65 1.71,0.73 2.3,0.8 6.64,4 12.51,10.47 12.91,18.59 0.44,6.34 -1.47,12.55 -3.62,18.43 7.19,-8.91 9.5,-21.91 4.5,-32.44 -2.56,-6.11 -8.32,-9.88 -11.55,-15.55 a 31.12,31.12 0 0 1 -4.76,-12.5 c -0.47,-0.93 -1.63,-1 -2.54,-1 H 32 c -2.87,0 -2.48,1.91 -2.48,3.85 v 55.21 c 0,0 -1.49,-0.14 -2.59,-0.14 C 18.52,68.08 9.39,74.18 8.55,83 7.57,90 14.91,95.73 21.46,94.64 Z"
       inkscape:connector-curvature="0"
      />
    <path
       id="path6"
       d="m 74.45,8 v 39.19 c 0,0 -1.06,-0.1 -1.84,-0.1 -5.93,-0.36 -12.41,4 -13,10.21 -0.7,5 4.51,9.05 9.16,8.28 C 74.6,64.91 79,59 78.2,53.09 c 0,-10.34 0,-20.69 0,-31 0.4,-0.46 1.21,0.52 1.63,0.57 4.71,2.8 8.88,7.43 9.16,13.19 0.31,4.5 -1,8.91 -2.57,13.08 5.11,-6.32 6.74,-15.55 3.19,-23 -1.81,-4.34 -5.91,-7 -8.2,-11 A 22.09,22.09 0 0 1 78.06,6 C 77.73,5.34 76.9,5.26 76.25,5.26 v 0 C 74.18,5.23 74.45,6.58 74.45,8 Z"
       inkscape:connector-curvature="0" 
      />
  </g>
</svg>
